<svg width="75" height="75" viewBox="0 0 75 75" fill="none" xmlns="http://www.w3.org/2000/svg">
<circle cx="37.5" cy="37.5" r="37" stroke="#D7B56D"/>
<path d="M45.5625 18.625H42.7117C42.171 17.0972 40.7115 16 39 16C37.2885 16 35.829 17.0972 35.2856 18.625H32.4375C31.713 18.625 31.125 19.213 31.125 19.9375V25.1875C31.125 25.912 31.713 26.5 32.4375 26.5H45.5625C46.287 26.5 46.875 25.912 46.875 25.1875V19.9375C46.875 19.213 46.287 18.625 45.5625 18.625Z" fill="#D7B56D"/>
<path d="M52.125 21.25H49.5V25.1875C49.5 27.3584 47.7334 29.125 45.5625 29.125H32.4375C30.2666 29.125 28.5 27.3584 28.5 25.1875V21.25H25.875C24.4286 21.25 23.25 22.4286 23.25 23.875V55.375C23.25 56.8476 24.4024 58 25.875 58H52.125C53.5976 58 54.75 56.8476 54.75 55.375V23.875C54.75 22.4024 53.5976 21.25 52.125 21.25ZM38.6168 44.4918L33.3668 49.7418C33.1095 49.9964 32.7735 50.125 32.4375 50.125C32.1015 50.125 31.7655 49.9964 31.5082 49.7418L28.8832 47.1168C28.3714 46.6049 28.3714 45.7728 28.8832 45.2609C29.3951 44.749 30.2273 44.749 30.7391 45.2609L32.4375 46.9566L36.7582 42.6359C37.2701 42.124 38.1023 42.124 38.6141 42.6359C39.126 43.1478 39.1286 43.9773 38.6168 44.4918ZM38.6168 33.9918L33.3668 39.2418C33.1095 39.4964 32.7735 39.625 32.4375 39.625C32.1015 39.625 31.7655 39.4964 31.5082 39.2418L28.8832 36.6168C28.3714 36.1049 28.3714 35.2727 28.8832 34.7609C29.3951 34.249 30.2273 34.249 30.7391 34.7609L32.4375 36.4566L36.7582 32.1359C37.2701 31.624 38.1023 31.624 38.6141 32.1359C39.126 32.6477 39.1286 33.4773 38.6168 33.9918ZM48.1875 47.5H42.9375C42.213 47.5 41.625 46.912 41.625 46.1875C41.625 45.463 42.213 44.875 42.9375 44.875H48.1875C48.912 44.875 49.5 45.463 49.5 46.1875C49.5 46.912 48.912 47.5 48.1875 47.5ZM48.1875 37H42.9375C42.213 37 41.625 36.412 41.625 35.6875C41.625 34.963 42.213 34.375 42.9375 34.375H48.1875C48.912 34.375 49.5 34.963 49.5 35.6875C49.5 36.412 48.912 37 48.1875 37Z" fill="#D7B56D"/>
</svg>
