<svg width="48" height="48" viewBox="0 0 48 48" fill="none" xmlns="http://www.w3.org/2000/svg">
<path d="M46.9123 6.51413C41.1034 6.51413 32.8967 7.00017 28.7028 11.1918C26.887 13.0076 25.9803 15.9676 26.2157 19.3179C26.2463 19.7604 26.5405 20.1375 26.9633 20.277C27.384 20.4144 27.8461 20.2857 28.1339 19.9479C30.4662 17.2036 33.3652 15.0043 36.7569 13.4109C37.0447 13.2735 37.3847 13.2626 37.6942 13.3716C37.9667 13.4697 38.1802 13.655 38.2914 13.8926C38.5224 14.3809 38.4483 15.0239 37.6811 15.3857C37.6375 15.4075 37.5983 15.4359 37.5547 15.4555C37.5395 15.462 37.522 15.4599 37.5089 15.4664C29.1518 19.3943 25.0431 26.2474 23.1771 33.2945C21.817 24.4709 18.9441 19.2765 16.2303 16.0876C14.2664 13.5417 12.3351 12.1924 11.2192 11.4296C11.012 11.2879 10.3865 10.8607 10.1271 10.6012C9.70205 10.1762 9.70205 9.48518 10.1271 9.06013C10.5522 8.63723 11.2453 8.63723 11.7183 9.10805C11.8338 9.21053 12.0191 9.34132 12.2545 9.49826L12.4485 9.62904C14.0266 10.7102 16.965 12.7177 19.5719 17.0401C19.8051 17.4259 20.2563 17.633 20.6945 17.5502C21.1391 17.4717 21.4879 17.1295 21.5751 16.687C22.144 13.7814 21.889 9.46985 19.2973 6.87818C15.1035 2.68868 6.89683 2.20264 1.09001 2.20264C0.488296 2.20253 0 2.69083 0 3.29244C0 9.10141 0.486048 17.3081 4.67769 21.502C6.4258 23.2501 9.12221 24.0348 11.801 24.0348C13.9873 24.0348 16.13 23.4877 17.7713 22.5395C20.0099 27.1779 21.7974 34.1074 21.7974 44.7074C21.7974 45.3091 22.2857 45.7973 22.8873 45.7973C23.4889 45.7973 23.9772 45.3091 23.9772 44.7074C23.9772 38.7938 24.9907 31.6965 28.7595 25.8549C30.27 27.3306 32.8705 28.2657 35.752 28.3529C35.8959 28.3573 36.0376 28.3594 36.1792 28.3594C39.1067 28.3594 41.6939 27.4418 43.3222 25.8113C47.516 21.6175 47.9999 13.4108 47.9999 7.60168C48.0022 7.00017 47.5161 6.51413 46.9123 6.51413Z" fill="#D7B56D"/>
</svg>
