<svg width="42" height="42" viewBox="0 0 42 42" fill="none" xmlns="http://www.w3.org/2000/svg">
<path d="M39.2401 5.87815C39.1647 5.33664 38.7751 4.8912 38.2484 4.7448L21.3678 0.0503116C21.1272 -0.0166688 20.873 -0.0166688 20.6322 0.0503116L3.75163 4.7448C3.22494 4.8912 2.83532 5.33646 2.75992 5.87815C2.66201 6.58218 0.428417 23.2167 6.15744 31.4919C11.8797 39.7572 20.3212 41.8754 20.6777 41.9616C20.7837 41.9872 20.8917 41.9998 21 41.9998C21.1083 41.9998 21.2163 41.987 21.3223 41.9616C21.679 41.8754 30.1205 39.7572 35.8426 31.4919C41.5716 23.2169 39.338 6.58236 39.2401 5.87815ZM31.8858 15.5896L20.3716 27.1038C20.1036 27.3717 19.7523 27.5059 19.4011 27.5059C19.0499 27.5059 18.6985 27.3719 18.4306 27.1038L11.3114 19.9847C11.054 19.7274 10.9094 19.3782 10.9094 19.0142C10.9094 18.6502 11.0541 18.301 11.3114 18.0437L12.725 16.6302C13.261 16.0943 14.1301 16.0941 14.666 16.6302L19.4011 21.3653L28.5313 12.2349C28.7886 11.9774 29.1377 11.8328 29.5017 11.8328C29.8657 11.8328 30.2149 11.9774 30.4722 12.2349L31.8858 13.6484C32.4218 14.1845 32.4218 15.0536 31.8858 15.5896Z" fill="#D7B56D"/>
</svg>
