<svg width="44" height="44" viewBox="0 0 44 44" fill="none" xmlns="http://www.w3.org/2000/svg">
<g clip-path="url(#clip0_345_400)">
<path d="M40.5095 6.23718C38.2318 3.76682 35.1065 2.40625 31.7086 2.40625C29.1687 2.40625 26.8427 3.20923 24.795 4.79269C23.7617 5.59198 22.8255 6.56985 22 7.71121C21.1749 6.57019 20.2383 5.59198 19.2047 4.79269C17.1573 3.20923 14.8313 2.40625 12.2914 2.40625C8.89352 2.40625 5.76788 3.76682 3.4902 6.23718C1.23972 8.67868 0 12.0141 0 15.6295C0 19.3507 1.38675 22.757 4.36401 26.3496C7.0274 29.5632 10.8553 32.8254 15.2881 36.603C16.8018 37.8931 18.5175 39.3553 20.299 40.913C20.7697 41.3252 21.3736 41.5521 22 41.5521C22.6261 41.5521 23.2303 41.3252 23.7003 40.9136C25.4818 39.3557 27.1985 37.8927 28.7129 36.602C33.145 32.8251 36.9729 29.5632 39.6363 26.3492C42.6136 22.757 44 19.3507 44 15.6292C44 12.0141 42.7603 8.67868 40.5095 6.23718Z" fill="#D7B56D"/>
</g>
<defs>
<clipPath id="clip0_345_400">
<rect width="44" height="44" fill="white"/>
</clipPath>
</defs>
</svg>
