<svg width="51" height="51" viewBox="0 0 51 51" fill="none" xmlns="http://www.w3.org/2000/svg">
<path d="M30.5381 33.6928C29.3354 34.8978 27.7331 35.5608 26.0308 35.5608C24.3289 35.5608 22.7267 34.8978 21.524 33.6928L12.4927 24.6619C11.288 23.4588 10.625 21.8569 10.625 20.1546C10.625 18.4523 11.288 16.8504 12.4927 15.6477C13.6954 14.4427 15.2977 13.7797 17 13.7797C18.7019 13.7797 20.3041 14.4427 21.5068 15.6477L26.0308 20.1694L38.5196 7.68098C34.4396 4.20247 29.1568 2.09241 23.3749 2.09241C10.4655 2.09241 0 12.5579 0 25.4669C0 38.3763 10.4655 48.8418 23.3749 48.8418C36.2839 48.8418 46.7494 38.3763 46.7494 25.4669C46.7494 23.051 46.3821 20.7219 45.7019 18.5289L30.5381 33.6928Z" fill="#D7B56D"/>
<path d="M26.0309 31.3108C25.4869 31.3108 24.9429 31.1026 24.5286 30.6882L15.4977 21.6569C14.6666 20.8262 14.6666 19.483 15.4977 18.6523C16.3284 17.8212 17.6711 17.8212 18.5023 18.6523L26.0309 26.1809L47.3723 4.83984C48.203 4.00912 49.5458 4.00912 50.3769 4.83984C51.2076 5.67094 51.2076 7.01371 50.3769 7.84482L27.5331 30.6882C27.1192 31.1026 26.5748 31.3108 26.0309 31.3108Z" fill="#D7B56D"/>
</svg>
