<svg width="16" height="16" viewBox="0 0 16 16" fill="none" xmlns="http://www.w3.org/2000/svg">
<g clip-path="url(#clip0_345_295)">
<path d="M11.2747 0.456177H4.47191C2.25786 0.456177 0.456665 2.25738 0.456665 4.47142V11.2744C0.456665 13.4883 2.25786 15.2895 4.47191 15.2895H11.2748C13.4888 15.2895 15.29 13.4883 15.29 11.2744V4.47142C15.29 2.25738 13.4888 0.456177 11.2747 0.456177V0.456177ZM7.87332 11.9287C5.63687 11.9287 3.81745 10.1093 3.81745 7.87283C3.81745 5.63638 5.63687 3.81696 7.87332 3.81696C10.1098 3.81696 11.9292 5.63638 11.9292 7.87283C11.9292 10.1093 10.1098 11.9287 7.87332 11.9287ZM12.0262 4.77347C11.3653 4.77347 10.8277 4.23591 10.8277 3.575C10.8277 2.9141 11.3653 2.37643 12.0262 2.37643C12.6871 2.37643 13.2247 2.9141 13.2247 3.575C13.2247 4.23591 12.6871 4.77347 12.0262 4.77347Z" fill="white"/>
<path d="M7.87329 4.68652C6.11645 4.68652 4.68701 6.11585 4.68701 7.8728C4.68701 9.62964 6.11645 11.0591 7.87329 11.0591C9.63024 11.0591 11.0596 9.62964 11.0596 7.8728C11.0596 6.11585 9.63024 4.68652 7.87329 4.68652Z" fill="white"/>
<path d="M12.0261 3.24609C11.8448 3.24609 11.6973 3.39367 11.6973 3.57496C11.6973 3.75626 11.8448 3.90383 12.0261 3.90383C12.2075 3.90383 12.3551 3.75637 12.3551 3.57496C12.3551 3.39355 12.2075 3.24609 12.0261 3.24609Z" fill="white"/>
</g>
<defs>
<clipPath id="clip0_345_295">
<rect width="14.8333" height="14.8333" fill="white" transform="translate(0.456665 0.456177)"/>
</clipPath>
</defs>
</svg>
