<svg width="292" height="100" viewBox="0 0 292 100" fill="none" xmlns="http://www.w3.org/2000/svg">
<g clip-path="url(#clip0_514_21)">
<path d="M93.59 67.2899C91.6444 68.0261 89.5802 68.3989 87.5 68.3899C81.98 68.3899 78.5 64.0899 78.5 58.8299C78.5 52.9099 82.04 48.4699 87.59 48.4699C89.4799 48.4519 91.3561 48.7911 93.12 49.4699L93.32 47.4699C91.417 46.8167 89.411 46.5151 87.4 46.5799C78.93 46.5799 76.15 53.3299 76.15 58.7799C76.15 64.0099 79.15 70.2599 87.15 70.2599C89.3209 70.2621 91.4816 69.9625 93.57 69.3699L93.59 67.2899ZM49.31 46.8499L57.74 64.3799L57.18 65.7699C56.45 67.5899 55.85 68.3899 54.63 68.3899C53.9429 68.4361 53.2551 68.3088 52.63 68.0199L52.53 69.8699C53.2815 70.1488 54.0786 70.2844 54.88 70.2699C57.72 70.2699 58.45 68.3499 59.31 66.3299L67.51 46.8499H65.18L60 59.2899L59 62.0699H58.9L57.71 59.1599L51.71 46.8499H49.31ZM24.9 46.8499V69.9999H27.08V58.3299H27.18L38.76 69.9999H41.84L29.33 57.7999L40.58 46.8499H37.8L27.18 57.4399H27.08V46.8499H24.9ZM2.18 58.9999H5.92C9.03 58.9999 11.28 60.6599 11.28 63.5299C11.28 67.7699 7.64 68.1299 5.69 68.1299H2.18V58.9999ZM2.18 48.7499H6C8.55 48.7499 10.67 49.9099 10.67 52.7499C10.67 55.2599 9.01 57.1499 5.94 57.1499H2.18V48.7499ZM0 46.8499V69.9999H6C7.09 69.9999 13.64 69.9299 13.64 63.4799C13.6432 62.1643 13.1781 60.8904 12.328 59.8864C11.4779 58.8823 10.2981 58.2136 9 57.9999V57.8999C12 56.8999 13 54.8999 13 52.6699C13 49.5299 11 46.8499 6.21 46.8499H0Z" fill="#D7B46A"/>
<path d="M280.51 48.9999L281.34 51.1899L285.83 61.7399H275.48L279.68 51.1899L280.41 48.9999H280.51ZM279.05 46.8499L269.86 69.9999H272.21L274.79 63.6099H286.63L289.31 69.9999H291.65L281.9 46.8499H279.05ZM257.26 48.7399H260.66C261.26 48.7399 265.66 48.7399 265.66 53.5299C265.66 58.0999 261.89 58.3299 260.66 58.3299H257.26V48.7399ZM255.07 46.8499V69.9999H257.26V60.1999H261.09C265.43 60.1999 268.09 57.4899 268.09 53.5199C268.09 49.5499 265.44 46.8399 261.09 46.8399L255.07 46.8499ZM238.24 46.8499V69.9999H250.11V68.1199H240.42V58.9999H249.05V57.1099H240.42V48.7399H249.48V46.8499H238.24ZM221.34 58.9999H225.07C228.18 58.9999 230.43 60.6499 230.43 63.5299C230.43 67.7699 226.79 68.1299 224.84 68.1299H221.34V58.9999ZM221.34 48.7499H225.11C227.65 48.7499 229.77 49.9099 229.77 52.7499C229.77 55.2599 228.12 57.1499 225.04 57.1499H221.34V48.7499ZM219.15 46.8599V69.9999H225.15C226.24 69.9999 232.79 69.9299 232.79 63.4799C232.792 62.1599 232.323 60.8825 231.467 59.8778C230.61 58.8731 229.424 58.2072 228.12 57.9999V57.8999C231.12 56.8999 232.12 54.8999 232.12 52.6699C232.12 49.5299 230.12 46.8499 225.34 46.8499L219.15 46.8599ZM202.32 46.8599V69.9999H214.19V68.1199H204.5V58.9999H213.13V57.1099H204.5V48.7399H213.56V46.8499L202.32 46.8599ZM198 67.2899C196.054 68.0227 193.99 68.3921 191.91 68.3799C186.39 68.3799 182.91 64.0799 182.91 58.8299C182.91 52.9099 186.45 48.4699 192 48.4699C193.89 48.4519 195.766 48.7911 197.53 49.4699L197.73 47.4699C195.827 46.8167 193.821 46.5151 191.81 46.5799C183.34 46.5799 180.56 53.3199 180.56 58.7799C180.56 64.0099 183.56 70.2599 191.56 70.2599C193.731 70.2621 195.892 69.9625 197.98 69.3699L198 67.2899Z" fill="#D7B46A"/>
<path d="M146.77 29C152.258 30.3707 157.589 32.3043 162.68 34.77C167.47 36.92 171.58 38.77 175.06 38.77C179.14 38.77 180.15 37.58 180.15 37.58L180.35 37.35L180.64 37.25C180.64 37.25 182.96 36.37 184.08 38.25C184.229 38.5192 184.304 38.8225 184.3 39.13C184.209 40.0413 183.822 40.898 183.2 41.57C180.34 45.05 173.71 46.48 169.44 46.48C167.809 46.3668 166.19 46.1193 164.6 45.74C160.86 45 156.03 44.05 152.91 44.88L153.47 42.36C157 41.83 161.47 42.72 165.05 43.42C166.494 43.7591 167.962 43.9897 169.44 44.11C172.67 44.11 180.26 42.87 181.87 39.35C181.787 39.3352 181.703 39.3352 181.62 39.35C180.93 39.9 179.01 41.07 175.06 41.07C171.11 41.07 166.77 39.13 161.71 36.87C156.768 34.4679 151.59 32.5845 146.26 31.25L146.77 29ZM158.19 48.9V60.76C155.77 60.07 152.01 58.93 152.01 55.9C152.018 55.443 152.068 54.9877 152.16 54.54C152.64 52.27 154.91 52.96 154.48 55.02C154.418 55.3094 154.385 55.6041 154.38 55.9C154.38 56.56 155.09 57.09 155.82 57.46C157.41 58.1 155.5 50.72 158.19 48.9ZM153.94 39.43C152.54 40.24 151.94 42.66 151.34 45.12C150.16 49.89 148.96 54.76 142.29 52.97L141.45 52.74V51.87C141.357 48.3599 142.609 44.947 144.95 42.33C147.42 39.33 149.15 40.89 146.78 43.82C144.997 45.7341 143.937 48.2091 143.78 50.82C147.37 51.27 148.21 47.82 149.03 44.52C149.68 42 151.6 38.84 153.94 39.43ZM112.88 30.3L127.06 49.3L131.72 52.8C133.27 51.74 135.79 52.28 136.16 54.22C136.16 54.22 138.26 63.9 139.1 65.35C139.76 66.49 142.1 66.95 142.1 66.95L148.1 68.57L148.27 69.25C148.27 69.25 149.93 76 151 77.77C151.53 78.69 153 79.04 154.65 79.04C155.62 79.0357 156.587 78.9182 157.53 78.69C158.307 78.5225 159.057 78.25 159.76 77.88C159.76 77.88 160.23 77.7 160.23 77.67V47.53H162.6V77.67C162.55 78.1592 162.369 78.626 162.077 79.0217C161.785 79.4175 161.393 79.7277 160.94 79.92C160.83 79.92 158.55 80.92 158.08 80.99C156.956 81.2583 155.805 81.3959 154.65 81.4C152.26 81.4 149.99 80.73 148.95 78.94C147.91 77.15 146.67 72.3 146.21 70.48L141.58 69.24C141.1 69.13 138.19 68.42 137.09 66.51C136.2 64.99 134.48 57.51 134 55.3C133.71 53.96 132.7 54.68 132.92 55.49L136.46 68.73V92.5L134.07 91V69L130.55 55.89C130.473 55.3842 130.493 54.8682 130.61 54.37L128.25 52.64L129.61 60.77L128.08 72L126 71.58V74.07H124.06V71.19L117.91 70L120.14 58.88L125.8 50.88L111.88 32.2L112.88 30.3ZM134.09 5.13723e-06C186.45 5.13723e-06 169.29 29 146.09 25.44C143.69 25.07 143.65 25.02 142.4 27.35C141.32 29.35 140.13 31.61 136.14 31.86L134.97 31.93L134.89 30.75C134.824 28.9888 135.432 27.2688 136.59 25.94C137.329 24.9397 138.269 24.1051 139.35 23.49C137.68 23.28 135.93 25.67 135.27 26.9C133.95 29.37 132.51 32.06 127.71 32.36L126.54 32.43L126.46 31.25C126.386 29.1301 127.118 27.061 128.51 25.46C129.009 24.8395 129.565 24.267 130.17 23.75H129.86C128.19 24.33 127.57 25.96 126.86 27.75C125.74 30.75 124.51 33.94 119.16 34.96L118 35.18L117.83 34C117.532 32.3141 117.727 30.5783 118.39 29C116.363 29.8322 114.191 30.2504 112 30.23C109.602 30.2779 107.275 29.4129 105.49 27.81L104.63 27L105.44 26.14C109.17 22.19 112.56 22.89 115.66 23.54C116.639 23.7941 117.648 23.9152 118.66 23.9L118.23 23.74C116.219 23.0448 114.544 21.6163 113.54 19.74L113.01 18.68L114.07 18.15C118.36 15.98 120.96 17.58 123.34 19.04C124.086 19.5587 124.905 19.9631 125.77 20.24C124.601 19.2481 123.807 17.8859 123.52 16.38L123.32 15.22L124.48 15.01C128.41 14.32 130.08 16.21 131.62 17.94C131.91 18.27 132.2 18.6 132.5 18.88C132.253 18.207 132.121 17.497 132.11 16.78V15.63H133.29C137.29 15.63 138.62 17.72 139.85 19.63C142.3 23.52 143.45 22.27 146.61 22.75C156.94 24.35 165.3 18.99 165.3 13.48C165.3 8.81 158.24 2.19001 134.05 2.34001C123.329 2.39519 112.658 3.82348 102.3 6.59001L104 77C104.06 79.71 106.5 81 109.14 82.38C109.6 82.62 110.07 82.86 110.49 83.1L135.49 96.87L160.49 83.1L162 82.3C164.59 80.93 167 79.66 167 77V49.16H169.37V77C169.37 81.09 166.31 82.69 163.02 84.4L161.65 85.14L135.51 99.54L109.36 85.14C108.9 84.88 108.47 84.66 108.05 84.44C104.77 82.71 101.74 81.12 101.65 77.03L100 4.78001C111.077 1.56936 122.557 -0.0402733 134.09 5.13723e-06V5.13723e-06ZM138.42 21.74L137.89 20.92C137.586 20.2723 137.155 19.6924 136.623 19.2148C136.09 18.7371 135.467 18.3716 134.79 18.14C135.05 18.7879 135.434 19.379 135.92 19.88C136.641 20.6384 137.486 21.2675 138.42 21.74V21.74ZM132 21.39L130 19.22C128.915 17.8961 127.413 16.9795 125.74 16.62C126.381 17.7403 127.138 18.7895 128 19.75C129.164 20.6421 130.545 21.2081 132 21.39V21.39ZM125.46 24.39V24.46L125.04 24.52C123.547 25.5781 122.273 26.9162 121.29 28.46C120.548 29.6111 120.114 30.9333 120.03 32.3C123.03 31.3 123.88 29 124.68 26.89C124.997 26.0004 125.378 25.1348 125.82 24.3L125.46 24.39ZM126.46 22.68C124.08 21.61 119.62 18.24 116.46 19.79C119 23.35 123.62 23.39 126.49 22.67L126.46 22.68ZM108.14 26.87C109.333 27.5415 110.681 27.8864 112.05 27.87C114.79 27.92 116.96 26.97 119.49 26.08C119.83 25.77 111.22 24.44 108.17 26.86L108.14 26.87ZM140.3 26.25C140.46 25.96 140.61 25.67 140.77 25.39C139.876 25.9181 139.078 26.5944 138.41 27.39C137.963 27.9234 137.624 28.538 137.41 29.2C138.071 28.9289 138.671 28.527 139.172 28.0183C139.674 27.5096 140.068 26.9047 140.33 26.24L140.3 26.25ZM133.17 25.8C133.54 25.11 134.75 23.73 135.17 23.12C133.395 23.5739 131.834 24.6353 130.76 26.12C129.917 27.2256 129.283 28.4762 128.89 29.81C131.38 29.2 132.32 27.43 133.2 25.79L133.17 25.8Z" fill="#D7B46A"/>
</g>
<defs>
<clipPath id="clip0_514_21">
<rect width="291.65" height="99.53" fill="white"/>
</clipPath>
</defs>
</svg>
