<svg width="393" height="205" fill="none" xmlns="http://www.w3.org/2000/svg">
  <g filter="url(#a)">
    <path d="M0 6h383l-39 92.5 39 92.5H0V6Z" fill="#2B486A"/>
  </g>
  <g clip-path="url(#b)" fill="#D7B46A">
    <path d="M123.59 106.29a17.007 17.007 0 0 1-6.09 1.1c-5.52 0-9-4.3-9-9.56 0-5.92 3.54-10.36 9.09-10.36a15 15 0 0 1 5.53 1l.2-2a16.59 16.59 0 0 0-5.92-.89c-8.47 0-11.25 6.75-11.25 12.2 0 5.23 3 11.48 11 11.48a23.421 23.421 0 0 0 6.42-.89l.02-2.08ZM79.31 85.85l8.43 17.53-.56 1.39c-.73 1.82-1.33 2.62-2.55 2.62a4.111 4.111 0 0 1-2-.37l-.1 1.85a6.429 6.429 0 0 0 2.35.4c2.84 0 3.57-1.92 4.43-3.94l8.2-19.48h-2.33L90 98.29l-1 2.78h-.1l-1.19-2.91-6-12.31h-2.4Zm-24.41 0V109h2.18V97.33h.1L68.76 109h3.08L59.33 96.8l11.25-10.95H67.8L57.18 96.44h-.1V85.85H54.9ZM32.18 98h3.74c3.11 0 5.36 1.66 5.36 4.53 0 4.24-3.64 4.6-5.59 4.6h-3.51V98Zm0-10.25H36c2.55 0 4.67 1.16 4.67 4 0 2.51-1.66 4.4-4.73 4.4h-3.76v-8.4ZM30 85.85V109h6c1.09 0 7.64-.07 7.64-6.52A5.54 5.54 0 0 0 39 97v-.1c3-1 4-3 4-5.23 0-3.14-2-5.82-6.79-5.82H30ZM310.51 88l.83 2.19 4.49 10.55h-10.35l4.2-10.55.73-2.19h.1Zm-1.46-2.15L299.86 109h2.35l2.58-6.39h11.84l2.68 6.39h2.34l-9.75-23.15h-2.85Zm-21.79 1.89h3.4c.6 0 5 0 5 4.79 0 4.57-3.77 4.8-5 4.8h-3.4v-9.59Zm-2.19-1.89V109h2.19v-9.8h3.83c4.34 0 7-2.71 7-6.68 0-3.97-2.65-6.68-7-6.68l-6.02.01Zm-16.83 0V109h11.87v-1.88h-9.69V98h8.63v-1.89h-8.63v-8.37h9.06v-1.89h-11.24ZM251.34 98h3.73c3.11 0 5.36 1.65 5.36 4.53 0 4.24-3.64 4.6-5.59 4.6h-3.5V98Zm0-10.25h3.77c2.54 0 4.66 1.16 4.66 4 0 2.51-1.65 4.4-4.73 4.4h-3.7v-8.4Zm-2.19-1.89V109h6c1.09 0 7.64-.07 7.64-6.52a5.541 5.541 0 0 0-4.67-5.48v-.1c3-1 4-3 4-5.23 0-3.14-2-5.82-6.78-5.82l-6.19.01Zm-16.83 0V109h11.87v-1.88h-9.69V98h8.63v-1.89h-8.63v-8.37h9.06v-1.89l-11.24.01ZM228 106.29a16.997 16.997 0 0 1-6.09 1.09c-5.52 0-9-4.3-9-9.55 0-5.92 3.54-10.36 9.09-10.36a15 15 0 0 1 5.53 1l.2-2a16.59 16.59 0 0 0-5.92-.89c-8.47 0-11.25 6.74-11.25 12.2 0 5.23 3 11.48 11 11.48a23.421 23.421 0 0 0 6.42-.89l.02-2.08ZM176.77 68a82.188 82.188 0 0 1 15.91 5.77c4.79 2.15 8.9 4 12.38 4 4.08 0 5.09-1.19 5.09-1.19l.2-.23.29-.1s2.32-.88 3.44 1c.149.27.224.573.22.88a4.209 4.209 0 0 1-1.1 2.44c-2.86 3.48-9.49 4.91-13.76 4.91a29.73 29.73 0 0 1-4.84-.74c-3.74-.74-8.57-1.69-11.69-.86l.56-2.52c3.53-.53 8 .36 11.58 1.06 1.444.34 2.912.57 4.39.69 3.23 0 10.82-1.24 12.43-4.76a.71.71 0 0 0-.25 0c-.69.55-2.61 1.72-6.56 1.72-3.95 0-8.29-1.94-13.35-4.2a79.528 79.528 0 0 0-15.45-5.62l.51-2.25Zm11.42 19.9v11.86c-2.42-.69-6.18-1.83-6.18-4.86a7.4 7.4 0 0 1 .15-1.36c.48-2.27 2.75-1.58 2.32.48-.062.29-.095.584-.1.88 0 .66.71 1.19 1.44 1.56 1.59.64-.32-6.74 2.37-8.56Zm-4.25-9.47c-1.4.81-2 3.23-2.6 5.69-1.18 4.77-2.38 9.64-9.05 7.85l-.84-.23v-.87a13.762 13.762 0 0 1 3.5-9.54c2.47-3 4.2-1.44 1.83 1.49a11.26 11.26 0 0 0-3 7c3.59.45 4.43-3 5.25-6.3.65-2.52 2.57-5.68 4.91-5.09Zm-41.06-9.13 14.18 19 4.66 3.5c1.55-1.06 4.07-.52 4.44 1.42 0 0 2.1 9.68 2.94 11.13.66 1.14 3 1.6 3 1.6l6 1.62.17.68s1.66 6.75 2.73 8.52c.53.92 2 1.27 3.65 1.27.97-.004 1.937-.122 2.88-.35a8.725 8.725 0 0 0 2.23-.81s.47-.18.47-.21V86.53h2.37v30.14a2.75 2.75 0 0 1-1.66 2.25c-.11 0-2.39 1-2.86 1.07a15.014 15.014 0 0 1-3.43.41c-2.39 0-4.66-.67-5.7-2.46s-2.28-6.64-2.74-8.46l-4.63-1.24c-.48-.11-3.39-.82-4.49-2.73-.89-1.52-2.61-9-3.09-11.21-.29-1.34-1.3-.62-1.08.19l3.54 13.24v23.77l-2.39-1.5v-22l-3.52-13.11a4.01 4.01 0 0 1 .06-1.52l-2.36-1.73 1.36 8.13-1.53 11.23-2.08-.42v2.49h-1.94v-2.88l-6.15-1.19 2.23-11.12 5.66-8-13.92-18.68 1-1.9ZM164.09 39c52.36 0 35.2 29 12 25.44-2.4-.37-2.44-.42-3.69 1.91-1.08 2-2.27 4.26-6.26 4.51l-1.17.07-.08-1.18a6.926 6.926 0 0 1 1.7-4.81 8.91 8.91 0 0 1 2.76-2.45c-1.67-.21-3.42 2.18-4.08 3.41-1.32 2.47-2.76 5.16-7.56 5.46l-1.17.07-.08-1.18a8.378 8.378 0 0 1 2.05-5.79 12.807 12.807 0 0 1 1.66-1.71h-.31c-1.67.58-2.29 2.21-3 4-1.12 3-2.35 6.19-7.7 7.21l-1.16.22-.17-1.18a8.907 8.907 0 0 1 .56-5 16.42 16.42 0 0 1-6.39 1.23 9.461 9.461 0 0 1-6.51-2.42l-.86-.81.81-.86c3.73-3.95 7.12-3.25 10.22-2.6.979.254 1.988.375 3 .36l-.43-.16a8.451 8.451 0 0 1-4.69-4l-.53-1.06 1.06-.53c4.29-2.17 6.89-.57 9.27.89a9.135 9.135 0 0 0 2.43 1.2 6.71 6.71 0 0 1-2.25-3.86l-.2-1.16 1.16-.21c3.93-.69 5.6 1.2 7.14 2.93.29.33.58.66.88.94a6.38 6.38 0 0 1-.39-2.1v-1.15h1.18c4 0 5.33 2.09 6.56 4 2.45 3.89 3.6 2.64 6.76 3.12 10.33 1.6 18.69-3.76 18.69-9.27 0-4.67-7.06-11.29-31.25-11.14a125.551 125.551 0 0 0-31.75 4.25L134 116c.06 2.71 2.5 4 5.14 5.38.46.24.93.48 1.35.72l25 13.77 25-13.77 1.51-.8c2.59-1.37 5-2.64 5-5.3V88.16h2.37V116c0 4.09-3.06 5.69-6.35 7.4l-1.37.74-26.14 14.4-26.15-14.4c-.46-.26-.89-.48-1.31-.7-3.28-1.73-6.31-3.32-6.4-7.41L130 43.78A120.94 120.94 0 0 1 164.09 39Zm4.33 21.74-.53-.82a5.342 5.342 0 0 0-3.1-2.78c.26.648.644 1.239 1.13 1.74a9.145 9.145 0 0 0 2.5 1.86Zm-6.42-.35-2-2.17a7.562 7.562 0 0 0-4.26-2.6 18.268 18.268 0 0 0 2.26 3.13 8.26 8.26 0 0 0 4 1.64Zm-6.54 3v.07l-.42.06a14.135 14.135 0 0 0-3.75 3.94 7.993 7.993 0 0 0-1.26 3.84c3-1 3.85-3.3 4.65-5.41.317-.89.698-1.755 1.14-2.59l-.36.09Zm1-1.71c-2.38-1.07-6.84-4.44-10-2.89 2.54 3.56 7.16 3.6 10.03 2.88l-.03.01Zm-18.32 4.19a7.78 7.78 0 0 0 3.91 1c2.74.05 4.91-.9 7.44-1.79.34-.31-8.27-1.64-11.32.78l-.03.01Zm32.16-.62c.16-.29.31-.58.47-.86a9.175 9.175 0 0 0-2.36 2 5.406 5.406 0 0 0-1 1.81 5.291 5.291 0 0 0 2.92-2.96l-.03.01Zm-7.13-.45c.37-.69 1.58-2.07 2-2.68a7.84 7.84 0 0 0-4.41 3 11.4 11.4 0 0 0-1.87 3.69c2.49-.61 3.43-2.38 4.31-4.02l-.03.01Z"/>
  </g>
  <defs>
    <clipPath id="b">
      <path fill="#fff" transform="translate(30 39)" d="M0 0h291.65v99.53H0z"/>
    </clipPath>
    <filter id="a" x="-10" y="0" width="403" height="205" filterUnits="userSpaceOnUse" color-interpolation-filters="sRGB">
      <feFlood flood-opacity="0" result="BackgroundImageFix"/>
      <feColorMatrix in="SourceAlpha" values="0 0 0 0 0 0 0 0 0 0 0 0 0 0 0 0 0 0 127 0" result="hardAlpha"/>
      <feOffset dy="4"/>
      <feGaussianBlur stdDeviation="5"/>
      <feComposite in2="hardAlpha" operator="out"/>
      <feColorMatrix values="0 0 0 0 0 0 0 0 0 0 0 0 0 0 0 0 0 0 0.25 0"/>
      <feBlend in2="BackgroundImageFix" result="effect1_dropShadow_345:277"/>
      <feBlend in="SourceGraphic" in2="effect1_dropShadow_345:277" result="shape"/>
    </filter>
  </defs>
</svg>