<svg width="18" height="18" viewBox="0 0 18 18" fill="none" xmlns="http://www.w3.org/2000/svg">
<g clip-path="url(#clip0_345_291)">
<path d="M14.4012 9.99885C14.1235 9.64818 14.203 9.49217 14.4012 9.17872C14.4048 9.17514 16.697 6.0077 16.9332 4.93352L16.9346 4.93281C17.052 4.54135 16.9346 4.25366 16.3671 4.25366H14.4892C14.0112 4.25366 13.7908 4.50056 13.6727 4.7768C13.6727 4.7768 12.7166 7.06542 11.364 8.54895C10.9275 8.97762 10.7257 9.11503 10.4874 9.11503C10.37 9.11503 10.1875 8.97762 10.1875 8.58617V4.93281C10.1875 4.46335 10.0537 4.25366 9.65792 4.25366H6.70518C6.40532 4.25366 6.22713 4.47265 6.22713 4.67661C6.22713 5.12174 6.90341 5.22407 6.97355 6.47645V9.19375C6.97355 9.78916 6.86548 9.89866 6.62574 9.89866C5.98739 9.89866 4.43802 7.60073 3.51985 4.97074C3.3345 4.46048 3.15344 4.25438 2.67181 4.25438H0.793249C0.257232 4.25438 0.14917 4.50127 0.14917 4.77751C0.14917 5.26558 0.787524 7.69233 3.11766 10.8984C4.6706 13.0868 6.85761 14.2727 8.8471 14.2727C10.0429 14.2727 10.1889 14.0093 10.1889 13.5563C10.1889 11.4652 10.0809 11.2677 10.6799 11.2677C10.9575 11.2677 11.4356 11.4051 12.552 12.4607C13.828 13.7123 14.0377 14.2727 14.7519 14.2727H16.6297C17.165 14.2727 17.4363 14.0093 17.2802 13.4898C16.9231 12.397 14.51 10.1491 14.4012 9.99885Z" fill="white"/>
</g>
<defs>
<clipPath id="clip0_345_291">
<rect width="17.1754" height="17.1754" fill="white" transform="translate(0.14917 0.675415)"/>
</clipPath>
</defs>
</svg>
