<svg width="23" height="23" viewBox="0 0 23 23" fill="none" xmlns="http://www.w3.org/2000/svg">
<g clip-path="url(#clip0_6_1321)">
<path d="M22.8781 16.7899C22.8502 16.7299 22.8243 16.6801 22.8001 16.6402C22.4011 15.9215 21.6385 15.0394 20.5129 13.9935L20.4891 13.9696L20.4772 13.9578L20.4652 13.9458H20.4531C19.9422 13.4588 19.6187 13.1313 19.4832 12.9637C19.2353 12.6443 19.1798 12.3211 19.3153 11.9935C19.411 11.7461 19.7705 11.2235 20.3931 10.425C20.7205 10.0018 20.9798 9.66266 21.1714 9.40714C22.5526 7.57086 23.1514 6.39745 22.9677 5.88645L22.8964 5.76704C22.8484 5.69515 22.7247 5.62938 22.5253 5.5694C22.3255 5.50955 22.0701 5.49965 21.7587 5.53954L18.3099 5.56336C18.2541 5.54357 18.1743 5.54541 18.0704 5.5694C17.9665 5.5934 17.9146 5.60543 17.9146 5.60543L17.8546 5.63542L17.8069 5.67145C17.767 5.69528 17.7231 5.73718 17.6752 5.79707C17.6275 5.85676 17.5876 5.9268 17.5557 6.00662C17.1802 6.97262 16.7533 7.87075 16.2742 8.70098C15.9788 9.19604 15.7075 9.62508 15.4598 9.98835C15.2123 10.3515 15.0047 10.6191 14.8372 10.7906C14.6695 10.9622 14.518 11.0998 14.3821 11.2037C14.2463 11.3076 14.1426 11.3515 14.0709 11.3354C13.9989 11.3194 13.9312 11.3034 13.8671 11.2875C13.7554 11.2156 13.6655 11.1178 13.5978 10.9941C13.5298 10.8704 13.484 10.7146 13.46 10.527C13.4362 10.3393 13.4221 10.1778 13.4181 10.042C13.4143 9.90643 13.4161 9.71463 13.4242 9.46716C13.4325 9.21957 13.4362 9.05205 13.4362 8.96422C13.4362 8.6608 13.4421 8.3315 13.454 7.97624C13.4661 7.62098 13.4758 7.3395 13.484 7.13213C13.4921 6.92455 13.4959 6.70494 13.4959 6.47341C13.4959 6.24188 13.4818 6.06031 13.454 5.92852C13.4265 5.7969 13.3842 5.66915 13.3286 5.54529C13.2726 5.42155 13.1906 5.32584 13.0831 5.25789C12.9753 5.19003 12.8414 5.13617 12.6819 5.09616C12.2588 5.0004 11.7199 4.9486 11.0651 4.94055C9.58029 4.92461 8.62621 5.02049 8.20308 5.22807C8.03543 5.31577 7.88372 5.4356 7.74808 5.58719C7.60434 5.76289 7.58429 5.85877 7.68806 5.87454C8.16714 5.94631 8.50629 6.11798 8.7059 6.3894L8.77783 6.53322C8.83378 6.63699 8.88965 6.8207 8.94556 7.08411C9.00139 7.34751 9.03742 7.63889 9.05327 7.95808C9.09312 8.54097 9.09312 9.03993 9.05327 9.455C9.0133 9.87024 8.97555 10.1935 8.93952 10.425C8.90349 10.6565 8.84964 10.8442 8.77783 10.9878C8.7059 11.1315 8.65804 11.2193 8.63405 11.2512C8.6101 11.2831 8.59014 11.3032 8.57428 11.3111C8.47051 11.3508 8.36259 11.3711 8.2509 11.3711C8.13903 11.3711 8.00339 11.3151 7.84375 11.2033C7.68416 11.0915 7.51852 10.9379 7.34685 10.7423C7.17517 10.5466 6.98156 10.2732 6.76593 9.92195C6.55047 9.57072 6.32691 9.15561 6.09538 8.67661L5.90383 8.32924C5.78408 8.10576 5.6205 7.78036 5.41292 7.35334C5.20522 6.92615 5.02163 6.51292 4.86204 6.11374C4.79824 5.9461 4.7024 5.81846 4.57468 5.73063L4.51475 5.6946C4.4749 5.66273 4.41094 5.62888 4.32319 5.59281C4.23532 5.55678 4.14363 5.53094 4.04775 5.51504L0.766558 5.53887C0.431262 5.53887 0.203761 5.61483 0.0839707 5.76654L0.0360294 5.8383C0.0120797 5.87827 0 5.94211 0 6.02998C0 6.11781 0.0239497 6.22561 0.071891 6.35324C0.550885 7.479 1.07178 8.56471 1.63458 9.61052C2.19737 10.6563 2.68643 11.4988 3.10146 12.1371C3.51658 12.7758 3.9397 13.3787 4.37084 13.9453C4.80197 14.5122 5.08736 14.8755 5.22699 15.0351C5.36678 15.1949 5.47659 15.3145 5.55641 15.3943L5.85584 15.6817C6.04744 15.8733 6.3288 16.1028 6.70004 16.3702C7.07136 16.6378 7.48245 16.9012 7.93351 17.1608C8.38465 17.4201 8.90949 17.6316 9.50832 17.7953C10.1071 17.9591 10.6898 18.0248 11.2567 17.9931H12.6339C12.9132 17.969 13.1248 17.8811 13.2686 17.7295L13.3162 17.6695C13.3483 17.6219 13.3783 17.5478 13.406 17.4482C13.434 17.3484 13.4479 17.2385 13.4479 17.1189C13.4397 16.7757 13.4658 16.4664 13.5256 16.191C13.5853 15.9157 13.6533 15.7081 13.7294 15.5683C13.8054 15.4286 13.8912 15.3108 13.9867 15.2152C14.0825 15.1195 14.1507 15.0614 14.1907 15.0415C14.2304 15.0214 14.2622 15.0078 14.2861 14.9996C14.4777 14.9357 14.7032 14.9976 14.9629 15.1853C15.2224 15.373 15.4658 15.6046 15.6935 15.8799C15.921 16.1555 16.1944 16.4647 16.5137 16.8079C16.8332 17.1512 17.1125 17.4065 17.3519 17.5744L17.5914 17.7181C17.7512 17.8139 17.9588 17.9018 18.2143 17.9816C18.4694 18.0614 18.6929 18.0813 18.8848 18.0414L21.9503 17.9936C22.2535 17.9936 22.4894 17.9434 22.6568 17.8438C22.8245 17.744 22.9241 17.6341 22.9562 17.5145C22.9883 17.3948 22.99 17.259 22.9623 17.1071C22.9339 16.9557 22.9059 16.8498 22.8781 16.7899Z" fill="#2B486A"/>
</g>
<defs>
<clipPath id="clip0_6_1321">
<rect width="23" height="23" fill="white"/>
</clipPath>
</defs>
</svg>
